<svg xmlns="http://www.w3.org/2000/svg" viewBox="0 0 420.67 171.79"><defs><style>.cls-1{fill:#fff;stroke:#231f20;stroke-linejoin:round;stroke-width:9px;}</style></defs><title>Asset 1</title><g id="Layer_2" data-name="Layer 2"><g id="Layer_1-2" data-name="Layer 1"><path class="cls-1" d="M375.47,85.9a40.7,40.7,0,1,0-40.7-40.7v.19a17.15,17.15,0,0,1-17.06,17.39H107.24A21.53,21.53,0,0,1,85.81,42.5c0-.16,0-.32,0-.48A40.7,40.7,0,1,0,45.2,85.9a40.7,40.7,0,1,0,40.7,40.69,1.48,1.48,0,0,0,0-.21A19.15,19.15,0,0,1,105,107H313a21.91,21.91,0,0,1,21.85,21.19c0,.17,0,.34,0,.5A40.7,40.7,0,1,0,375.47,85.9Z"/></g></g></svg>